<?xml version="1.0" encoding="UTF-8" standalone="no"?>
<!-- Created with Inkscape (http://www.inkscape.org/) -->

<svg
   xmlns:dc="http://purl.org/dc/elements/1.1/"
   xmlns:cc="http://creativecommons.org/ns#"
   xmlns:rdf="http://www.w3.org/1999/02/22-rdf-syntax-ns#"
   xmlns:svg="http://www.w3.org/2000/svg"
   xmlns="http://www.w3.org/2000/svg"
   xmlns:sodipodi="http://sodipodi.sourceforge.net/DTD/sodipodi-0.dtd"
   xmlns:inkscape="http://www.inkscape.org/namespaces/inkscape"
   width="363mm"
   height="395mm"
   viewBox="0 0 363 395"
   version="1.1"
   id="svg8"
   inkscape:version="0.92.3 (2405546, 2018-03-11)"
   sodipodi:docname="kucence.svg">
  <defs
     id="defs2">
    <inkscape:path-effect
       effect="powerstroke"
       id="path-effect857"
       is_visible="true"
       offset_points="0,0.13229166"
       sort_points="true"
       interpolator_type="CubicBezierJohan"
       interpolator_beta="0.2"
       start_linecap_type="zerowidth"
       linejoin_type="extrp_arc"
       miter_limit="4"
       end_linecap_type="zerowidth" />
    <inkscape:path-effect
       effect="spiro"
       id="path-effect855"
       is_visible="true" />
    <inkscape:path-effect
       effect="spiro"
       id="path-effect847"
       is_visible="true" />
    <inkscape:path-effect
       effect="bspline"
       id="path-effect843"
       is_visible="true"
       weight="33.333333"
       steps="2"
       helper_size="0"
       apply_no_weight="true"
       apply_with_weight="true"
       only_selected="false" />
    <inkscape:path-effect
       effect="powerstroke"
       id="path-effect839"
       is_visible="true"
       offset_points="0,0.13229166"
       sort_points="true"
       interpolator_type="CubicBezierJohan"
       interpolator_beta="0.2"
       start_linecap_type="zerowidth"
       linejoin_type="extrp_arc"
       miter_limit="4"
       end_linecap_type="zerowidth" />
    <inkscape:path-effect
       effect="spiro"
       id="path-effect837"
       is_visible="true" />
    <inkscape:path-effect
       effect="powerstroke"
       id="path-effect833"
       is_visible="true"
       offset_points="0,0.13229166"
       sort_points="true"
       interpolator_type="CubicBezierJohan"
       interpolator_beta="0.2"
       start_linecap_type="zerowidth"
       linejoin_type="extrp_arc"
       miter_limit="4"
       end_linecap_type="zerowidth" />
    <inkscape:path-effect
       effect="spiro"
       id="path-effect831"
       is_visible="true" />
    <inkscape:path-effect
       effect="powerstroke"
       id="path-effect827"
       is_visible="true"
       offset_points="0,0.13229166"
       sort_points="true"
       interpolator_type="CubicBezierJohan"
       interpolator_beta="0.2"
       start_linecap_type="zerowidth"
       linejoin_type="extrp_arc"
       miter_limit="4"
       end_linecap_type="zerowidth" />
    <inkscape:path-effect
       effect="spiro"
       id="path-effect825"
       is_visible="true" />
    <inkscape:path-effect
       effect="bspline"
       id="path-effect821"
       is_visible="true"
       weight="33.333333"
       steps="2"
       helper_size="0"
       apply_no_weight="true"
       apply_with_weight="true"
       only_selected="false" />
    <inkscape:path-effect
       effect="spiro"
       id="path-effect817"
       is_visible="true" />
  </defs>
  <sodipodi:namedview
     id="base"
     pagecolor="#ffffff"
     bordercolor="#666666"
     borderopacity="1.0"
     inkscape:pageopacity="0.0"
     inkscape:pageshadow="2"
     inkscape:zoom="0.35"
     inkscape:cx="1174.1314"
     inkscape:cy="840.13483"
     inkscape:document-units="mm"
     inkscape:current-layer="layer1"
     showgrid="false"
     showborder="true"
     showguides="false"
     inkscape:window-width="1920"
     inkscape:window-height="1018"
     inkscape:window-x="-8"
     inkscape:window-y="-8"
     inkscape:window-maximized="1"
     inkscape:pagecheckerboard="false" />
  <metadata
     id="metadata5">
    <rdf:RDF>
      <cc:Work
         rdf:about="">
        <dc:format>image/svg+xml</dc:format>
        <dc:type
           rdf:resource="http://purl.org/dc/dcmitype/StillImage" />
        <dc:title></dc:title>
      </cc:Work>
    </rdf:RDF>
  </metadata>
  <g
     inkscape:label="Layer 1"
     inkscape:groupmode="layer"
     id="layer1"
     transform="translate(0,98)">
    <g
       id="g1050"
       transform="translate(205.61905,-148.16667)">
      <path
         sodipodi:nodetypes="cssccccccccccsccccccccccccscscscssssc"
         inkscape:connector-curvature="0"
         id="path859"
         d="m -140.41815,363.33482 c 0,0 -4.95925,1.03719 -6.33132,1.03797 -2.65789,10e-4 -6.74762,-0.34027 -7.84279,-2.36089 -3.59064,-6.62484 7.9375,-21.16666 7.9375,-21.16666 l 6.04762,-16.63097 0.75595,-9.07142 -1.5119,-15.11903 -6.80357,-13.60715 -1.51191,-6.80358 -1.5119,-17.3869 8.31547,-19.65476 8.31548,-14.3631 v 0 c 0,0 9.01754,10.30669 11.90068,13.47745 2.73348,3.00617 16.87924,-6.62476 16.87924,-6.62476 0,0 11.057113,12.13971 16.680059,7.75869 3.997333,-3.46285 5.944781,-16.87924 5.944781,-16.87924 l 6.047618,11.33929 6.047619,7.55952 9.07143,4.53572 c 2.305327,0.67193 8.281029,2.71576 9.071427,-0.75596 0.509632,-3.38925 -6.047618,-8.31547 -6.047618,-8.31547 l -2.267858,-15.875 -2.267857,-10.58333 c -1.837748,-9.42768 -12.320857,-20.08671 -12.320857,-20.08671 0,0 -11.855593,-5.77675 -11.491641,-9.7734 -4.63231,-2.48562 -11.171828,-6.70143 -15.875003,-6.60902 l -13.2023,0.25939 c -5.78435,1.99293 -18.32141,2.95698 -18.04003,7.62438 0.69885,11.59219 -15.69061,12.92645 -23.75876,24.33894 -1.77766,2.76427 -0.34605,17.49224 -1.29049,21.68244 -0.77765,3.45021 -5.63166,12.65663 -5.63166,12.65663 0,0 -1.89399,13.90421 2.08443,12.90492 5.17859,-1.30075 7.30013,-3.31007 11.07989,-5.57793 0,0 7.21137,-15.21695 9.55668,-17.31197 1.87117,-1.67148 5.16048,-3.08316 6.83249,-4.21261 1.0451,-0.70597 0.99773,-1.53197 0.99773,-1.53197"
         style="fill:none;stroke:#000000;stroke-width:4;stroke-linecap:butt;stroke-linejoin:miter;stroke-opacity:1" />
      <path
         style="fill:none;stroke:#000000;stroke-width:2;stroke-linecap:butt;stroke-linejoin:miter;stroke-opacity:1"
         d="m -134.55952,228.20833 0.37797,-12.85119"
         id="path1062"
         inkscape:connector-curvature="0" />
      <path
         style="fill:none;stroke:#000000;stroke-width:4;stroke-linecap:butt;stroke-linejoin:miter;stroke-opacity:1"
         d="m -123.7872,240.68155 c 1.39923,0.48526 5.64055,5.10269 6.99256,5.10267 0,0 3.29491,0.24953 4.91369,0 2.48107,-0.38244 5.48065,-1.88988 5.48065,-1.88988 0.91499,-0.28894 4.22074,1.70089 5.10268,2.07887 l 5.858633,0.75595 c 0,0 4.394602,-1.73139 5.858631,-3.02381 0.761508,-0.67225 0,0 0,0"
         id="path1076"
         inkscape:connector-curvature="0"
         sodipodi:nodetypes="ccssccsc" />
    </g>
    <path
       style="fill:none;stroke:#000000;stroke-width:4;stroke-linecap:butt;stroke-linejoin:miter;stroke-opacity:1"
       d="m 61.232148,216.11309 c 5.53153,-0.0853 14.36309,-8.31549 14.36309,-8.31549 l -0.75595,-12.09524 4.53571,-11.33927 3.77977,-8.31549 1.5119,-17.3869 0.75595,-21.92261 v 0 c 0,0 0.009,3.1413 1.88989,4.15774 5.43481,2.93665 14.995212,6.90894 21.166662,7.18154 4.30907,0.19034 4.63412,-3.74734 9.07143,-1e-5 0.98378,4.72124 3.94667,10.74655 4.48985,14.3631 0.52476,4.43423 6.62278,4.29135 7.37054,8.69347 0.8873,5.22359 -2.62192,16.68532 -2.62192,16.68532 -0.9213,3.66253 -3.41658,11.02644 -1.17684,20.29934 1.58796,6.57441 15.02932,5.85924 19.31708,2.96225 2.99231,-2.02174 5.50521,-9.33084 5.50521,-9.33084 v 0 l -1.32291,-20.7887 -6.99256,-30.61606 3.77976,-7.55954 c 13.51549,3.39709 30.66298,-1.69484 42.82202,-3.60027 32.77999,-5.13692 18.33878,-7.21258 25.71507,-12.07888 0.8035,-0.53009 3.52407,-1.78434 5.65892,-1.33175 1.70583,-0.73107 6.34527,-0.47443 8.81142,0.22233 4.05673,1.14614 11.74737,2.19457 12.24257,3.93738 0.006,0.0212 0.61343,1.71293 0.61949,1.73419 2.81126,9.87688 6.87978,20.65001 13.7436,23.96821 l 9.07143,10.58333 3.40179,16.63093 c 2.59657,5.4352 -10.50799,24.62014 -1.13922,22.76027 2.2318,-0.44305 5.71541,-1.41715 5.41351,-1.33319 0,0 3.46649,-1.55801 6.68702,-2.52825 l 10.58333,-3.77976 c -2.09076,0.7467 -3.3792,-8.80797 -6.04762,-13.98515 -2.84147,-1.46066 7.15898,-21.49872 1.63412,-26.32515 0,0 -3.52051,-2.83127 -5.77286,-2.79798 -13.21948,-0.91619 -4.45493,-16.6432 -2.583,-22.53325 3.06403,-10.22098 2.46143,-21.35325 3.14587,-30.05957 0.074,-0.9411 -0.58703,-6.014527 -0.55365,-6.906007 -0.67846,-6.78936 -0.33788,-16.01852 3.90836,-24.65855 5.99299,-12.19425 33.53869,-22.0401 46.503,-30.97691 5.13042,-3.53661 -0.31115,-9.68112 -7.58283,-8.70624 -41.06452,5.50534 -47.23335,28.62609 -74.09907,35.81793 -4.90324,1.41124 -9.10274,1.99581 -13.73684,4.13087 -6.5576,3.02127 -15.07287,3.66245 -21.96848,6.26903 -8.25878,3.12187 -27.26014,5.51308 -27.26014,5.51308 l -13.51543,2.58099 c -8.22069,1.56987 -22.95425,-6.14556 -24.94643,6.80357"
       id="path861"
       inkscape:connector-curvature="0"
       sodipodi:nodetypes="cccccccsssccscsscccccsscssscccsscscsccscssscsscsc" />
    <path
       style="fill:none;stroke:#000000;stroke-width:4;stroke-linecap:butt;stroke-linejoin:miter;stroke-opacity:1"
       d="m 212.35831,128.96307 c -3.48932,6.73621 2.96533,12.8476 7.62383,24.028 l 3.77976,9.07144 c 4.07351,13.18676 -0.71296,19.65346 -9.82738,31.372 0,0 -10.57881,5.63191 -9.07142,9.82739 1.8918,5.26542 16.63095,2.26785 16.63095,2.26785 h 14.36309 l -0.75595,-11.33927 c 0,0 -0.80832,-6.51944 -0.37798,-9.82738 0.48708,-3.74401 2.05463,-6.77182 3.40179,-10.20536 1.12344,-2.86335 1.88988,-8.31547 1.88988,-8.31547 0.85222,0 -2.07953,-9.81734 -1.13393,-13.98513 0.96589,-4.25722 -3.45909,-8.42751 -2.87672,-14.29811 0.28864,-2.90964 5.14458,-7.62452 5.14458,-7.62452 v 0"
       id="path1047"
       inkscape:connector-curvature="0"
       sodipodi:nodetypes="csccscccsscsscc" />
    <path
       style="fill:none;stroke:#000000;stroke-width:4;stroke-linecap:butt;stroke-linejoin:miter;stroke-opacity:1"
       d="m 116.41667,135.03718 0,11.1503"
       id="path1052"
       inkscape:connector-curvature="0"
       sodipodi:nodetypes="cc" />
    <path
       style="fill:none;stroke:#000000;stroke-width:2;stroke-linecap:butt;stroke-linejoin:miter;stroke-opacity:1"
       d="m 99.839448,86.894353 0.208142,-9.15472"
       id="path1054"
       inkscape:connector-curvature="0" />
    <ellipse
       style="fill:#000000;fill-opacity:1;stroke:#000000;stroke-width:1.99999988;stroke-linejoin:bevel;stroke-miterlimit:4;stroke-dasharray:none;stroke-dashoffset:0;stroke-opacity:1"
       id="path1058"
       cx="100.41409"
       cy="73.826714"
       rx="4.1082864"
       ry="3.1111159" />
    <path
       style="fill:#000000;fill-opacity:1;stroke:#000000;stroke-width:2.44757795;stroke-linejoin:bevel;stroke-miterlimit:4;stroke-dasharray:none;stroke-dashoffset:0;stroke-opacity:1"
       id="path1060"
       sodipodi:type="arc"
       sodipodi:cx="-18.914736"
       sodipodi:cy="101.32357"
       sodipodi:rx="4.5791411"
       sodipodi:ry="4.9062223"
       sodipodi:start="2.7253233"
       sodipodi:end="5.7382237"
       d="m -23.102836,103.30741 a 4.5791411,4.9062223 0 0 1 2.071049,-6.334239 4.5791411,4.9062223 0 0 1 6.032891,1.807086 l -3.91584,2.543313 z"
       transform="rotate(-65.587456)" />
    <path
       transform="rotate(-65.587456)"
       d="m -23.102836,103.30741 a 4.5791411,4.9062223 0 0 1 2.071049,-6.334239 4.5791411,4.9062223 0 0 1 6.032891,1.807086 l -3.91584,2.543313 z"
       sodipodi:end="5.7382237"
       sodipodi:start="2.7253233"
       sodipodi:ry="4.9062223"
       sodipodi:rx="4.5791411"
       sodipodi:cy="101.32357"
       sodipodi:cx="-18.914736"
       sodipodi:type="arc"
       id="path1064"
       style="fill:#000000;fill-opacity:1;stroke:#000000;stroke-width:2.44757795;stroke-linejoin:bevel;stroke-miterlimit:4;stroke-dasharray:none;stroke-dashoffset:0;stroke-opacity:1" />
    <path
       style="fill:#000000;fill-opacity:1;stroke:#000000;stroke-width:2.55656314;stroke-linejoin:bevel;stroke-miterlimit:4;stroke-dasharray:none;stroke-dashoffset:0;stroke-opacity:1"
       id="path1066"
       sodipodi:type="arc"
       sodipodi:cx="-55.725639"
       sodipodi:cy="-95.352745"
       sodipodi:rx="5.4771376"
       sodipodi:ry="4.4752526"
       sodipodi:start="2.7253233"
       sodipodi:end="5.7382237"
       d="m -60.73505,-93.543171 a 5.4771376,4.4752526 0 0 1 2.477193,-5.777828 5.4771376,4.4752526 0 0 1 7.215976,1.648349 l -4.683758,2.319905 z"
       transform="matrix(-0.34554115,-0.9384036,-0.99828387,-0.05856036,0,0)" />
    <path
       style="fill:none;stroke:#000000;stroke-width:2;stroke-linecap:butt;stroke-linejoin:miter;stroke-opacity:1"
       d="m 121.95268,75.575543 v 0 c -0.61835,-1.31555 0.48486,-2.30311 0.48347,-3.50857 -0.004,-3.18113 0.27011,-6.28567 0.67338,-8.98756"
       id="path1068"
       inkscape:connector-curvature="0"
       sodipodi:nodetypes="ccsc" />
    <path
       style="fill:none;stroke:#000000;stroke-width:0.26458332px;stroke-linecap:butt;stroke-linejoin:miter;stroke-opacity:1"
       d="m -527.0555,201.31751 v 0"
       id="path1090"
       inkscape:connector-curvature="0" />
    <path
       style="fill:none;stroke:#000000;stroke-width:3;stroke-linecap:butt;stroke-linejoin:miter;stroke-opacity:1"
       d="m 142.11905,133.33631 3.77976,9.44939"
       id="path1094"
       inkscape:connector-curvature="0" />
    <path
       style="fill:#000000;fill-opacity:1;stroke:#000000;stroke-width:2;stroke-linejoin:bevel;stroke-miterlimit:4;stroke-dasharray:none;stroke-dashoffset:0;stroke-opacity:1"
       d="m -401.41071,-12.184524 h 71.81548 c 0,0 44.973,115.164174 0.75595,130.779754 -25.01537,8.83437 -54.6177,16.65196 -71.81548,0 -33.68895,-32.61974 -0.75595,-130.779754 -0.75595,-130.779754 z"
       id="rect1096"
       inkscape:connector-curvature="0"
       sodipodi:nodetypes="ccssc" />
    <path
       style="fill:none;stroke:#000000;stroke-width:2;stroke-linecap:butt;stroke-linejoin:miter;stroke-opacity:1"
       d="m 51.877238,213.56174 6.61458,-7.37052"
       id="path1105"
       inkscape:connector-curvature="0" />
    <path
       style="fill:none;stroke:#000000;stroke-width:2;stroke-linecap:butt;stroke-linejoin:miter;stroke-opacity:1"
       d="m 57.489458,215.79134 c -0.067,0.19341 3.51437,-3.99152 6.52976,-7.49713"
       id="path1107"
       inkscape:connector-curvature="0"
       sodipodi:nodetypes="cc" />
    <path
       style="fill:none;stroke:#000000;stroke-width:2;stroke-linecap:butt;stroke-linejoin:miter;stroke-opacity:1"
       d="m 134.39172,200.41635 c -3.20724,7.75081 -4.94449,10.42351 -4.94449,10.42351"
       id="path1109"
       inkscape:connector-curvature="0"
       sodipodi:nodetypes="cc" />
    <path
       sodipodi:nodetypes="cc"
       inkscape:connector-curvature="0"
       id="path1111"
       d="m 140.9186,202.0673 c -3.1677,7.76705 -4.89132,10.44857 -4.89132,10.44857"
       style="fill:none;stroke:#000000;stroke-width:2;stroke-linecap:butt;stroke-linejoin:miter;stroke-opacity:1" />
    <path
       style="fill:none;stroke:#000000;stroke-width:2.42578936;stroke-linecap:butt;stroke-linejoin:miter;stroke-opacity:1"
       d="m 221.01854,196.66514 -8.88289,9.54587"
       id="path1113"
       inkscape:connector-curvature="0" />
    <path
       inkscape:connector-curvature="0"
       id="path1115"
       d="m 228.75485,197.24797 -8.38374,9.00947"
       style="fill:none;stroke:#000000;stroke-width:2.28947902;stroke-linecap:butt;stroke-linejoin:miter;stroke-opacity:1" />
    <path
       inkscape:connector-curvature="0"
       id="path1117"
       d="m 274.43404,192.75765 -4.78943,12.1281"
       style="fill:none;stroke:#000000;stroke-width:2.42578936;stroke-linecap:butt;stroke-linejoin:miter;stroke-opacity:1"
       inkscape:transform-center-x="-2.8888318"
       inkscape:transform-center-y="-1.4186045" />
    <path
       inkscape:transform-center-y="-1.4186045"
       inkscape:transform-center-x="-2.8888318"
       style="fill:none;stroke:#000000;stroke-width:2.42578936;stroke-linecap:butt;stroke-linejoin:miter;stroke-opacity:1"
       d="m 281.44986,191.48812 -4.78943,12.1281"
       id="path1119"
       inkscape:connector-curvature="0" />
  </g>
</svg>
